<svg id="Camada_1" data-name="Camada 1" xmlns="http://www.w3.org/2000/svg" viewBox="0 0 506.59 123.35"><defs><style>.cls-1,.cls-4{fill:#fff;}.cls-2,.cls-3{fill:#d90000;}.cls-3{font-size:57.06px;font-family:StaticBold, Static Bold;}.cls-4{font-size:52px;}.cls-5{letter-spacing:-0.03em;}.cls-6{letter-spacing:0em;}.cls-7{letter-spacing:-0.03em;}</style></defs><path class="cls-1" d="M118,84.91v23.8a24.29,24.29,0,0,1-1.63,9.45,14,14,0,0,1-5.43,6.36,26.89,26.89,0,0,1-10.07,3.57,93.05,93.05,0,0,1-15.43,1.08H67.64L46.71,155.84H85.47q64.8,0,64.81-47.13V84.91Z" transform="translate(-46.71 -49.79)"/><path class="cls-2" d="M238.11,135.68c-3.62-3.61-6.51-6.46-8.68-8.52a73.34,73.34,0,0,0-5.89-5.12,35.12,35.12,0,0,0,11.39-4.26,31.54,31.54,0,0,0,13.88-17.14,35.09,35.09,0,0,0,1.86-11.47q0-11.16-5-18.3a36.93,36.93,0,0,0-12.79-11.31,56.12,56.12,0,0,0-17.21-5.82,108.29,108.29,0,0,0-18.29-1.63H118v27H200q8.37,0,13,3t4.65,9.07c0,3.61-1.71,6.46-5.12,8.52a23.8,23.8,0,0,1-12.56,3.1H157.2v5.9a49.93,49.93,0,0,1-3.64,19.69h37.57l23.11,27.44h42.94Z" transform="translate(-46.71 -49.79)"/><text class="cls-3" transform="translate(218.51 49.01)">Julio Rugolo<tspan class="cls-4"><tspan x="0" y="59">Dev </tspan><tspan class="cls-5" x="84.91" y="59">F</tspan><tspan class="cls-6" x="108.16" y="59">u</tspan><tspan class="cls-7" x="132.13" y="59">l</tspan><tspan x="150.38" y="59">lStack</tspan></tspan></text></svg>